<mxfile host="app.diagrams.net" modified="2020-12-02T08:14:15.623Z" agent="5.0 (Windows NT 10.0; Win64; x64) AppleWebKit/537.36 (KHTML, like Gecko) Chrome/86.0.4240.198 Safari/537.36" etag="rFw9-234amzTE0En2V25" version="13.10.4" type="github">
  <diagram id="xpeXa9wtzAViACcRCV1u" name="Page-1">
    <mxGraphModel dx="211" dy="1744" grid="1" gridSize="10" guides="1" tooltips="1" connect="1" arrows="1" fold="1" page="1" pageScale="1" pageWidth="827" pageHeight="1169" math="0" shadow="0">
      <root>
        <mxCell id="0" />
        <mxCell id="1" parent="0" />
        <mxCell id="m5_LvV5t_TjfRuA9_Ew4-1" value="BluetoothSocketServerThread" style="swimlane;fontStyle=1;align=center;verticalAlign=top;childLayout=stackLayout;horizontal=1;startSize=26;horizontalStack=0;resizeParent=1;resizeParentMax=0;resizeLast=0;collapsible=1;marginBottom=0;" vertex="1" parent="1">
          <mxGeometry x="1050" y="-610" width="270" height="164" as="geometry" />
        </mxCell>
        <mxCell id="m5_LvV5t_TjfRuA9_Ew4-2" value="BluetoothServerSocket mmServerSocket" style="text;strokeColor=none;fillColor=none;align=left;verticalAlign=top;spacingLeft=4;spacingRight=4;overflow=hidden;rotatable=0;points=[[0,0.5],[1,0.5]];portConstraint=eastwest;" vertex="1" parent="m5_LvV5t_TjfRuA9_Ew4-1">
          <mxGeometry y="26" width="270" height="26" as="geometry" />
        </mxCell>
        <mxCell id="m5_LvV5t_TjfRuA9_Ew4-3" value="BluetoothSocket socket" style="text;strokeColor=none;fillColor=none;align=left;verticalAlign=top;spacingLeft=4;spacingRight=4;overflow=hidden;rotatable=0;points=[[0,0.5],[1,0.5]];portConstraint=eastwest;" vertex="1" parent="m5_LvV5t_TjfRuA9_Ew4-1">
          <mxGeometry y="52" width="270" height="26" as="geometry" />
        </mxCell>
        <mxCell id="m5_LvV5t_TjfRuA9_Ew4-4" value="BluetoothSocketServerCallback mCallback" style="text;strokeColor=none;fillColor=none;align=left;verticalAlign=top;spacingLeft=4;spacingRight=4;overflow=hidden;rotatable=0;points=[[0,0.5],[1,0.5]];portConstraint=eastwest;" vertex="1" parent="m5_LvV5t_TjfRuA9_Ew4-1">
          <mxGeometry y="78" width="270" height="26" as="geometry" />
        </mxCell>
        <mxCell id="m5_LvV5t_TjfRuA9_Ew4-5" value="" style="line;strokeWidth=1;fillColor=none;align=left;verticalAlign=middle;spacingTop=-1;spacingLeft=3;spacingRight=3;rotatable=0;labelPosition=right;points=[];portConstraint=eastwest;" vertex="1" parent="m5_LvV5t_TjfRuA9_Ew4-1">
          <mxGeometry y="104" width="270" height="8" as="geometry" />
        </mxCell>
        <mxCell id="m5_LvV5t_TjfRuA9_Ew4-6" value="void sendBluetoothMessage(String str)" style="text;strokeColor=none;fillColor=none;align=left;verticalAlign=top;spacingLeft=4;spacingRight=4;overflow=hidden;rotatable=0;points=[[0,0.5],[1,0.5]];portConstraint=eastwest;" vertex="1" parent="m5_LvV5t_TjfRuA9_Ew4-1">
          <mxGeometry y="112" width="270" height="26" as="geometry" />
        </mxCell>
        <mxCell id="m5_LvV5t_TjfRuA9_Ew4-7" value="void run()" style="text;strokeColor=none;fillColor=none;align=left;verticalAlign=top;spacingLeft=4;spacingRight=4;overflow=hidden;rotatable=0;points=[[0,0.5],[1,0.5]];portConstraint=eastwest;" vertex="1" parent="m5_LvV5t_TjfRuA9_Ew4-1">
          <mxGeometry y="138" width="270" height="26" as="geometry" />
        </mxCell>
        <mxCell id="m5_LvV5t_TjfRuA9_Ew4-8" style="edgeStyle=orthogonalEdgeStyle;rounded=0;orthogonalLoop=1;jettySize=auto;html=1;" edge="1" parent="1" source="m5_LvV5t_TjfRuA9_Ew4-9">
          <mxGeometry relative="1" as="geometry">
            <mxPoint x="1321" y="-600" as="targetPoint" />
          </mxGeometry>
        </mxCell>
        <mxCell id="m5_LvV5t_TjfRuA9_Ew4-9" value="蓝牙socket接收服务线程" style="shape=note2;boundedLbl=1;whiteSpace=wrap;html=1;size=25;verticalAlign=top;align=center;" vertex="1" parent="1">
          <mxGeometry x="1400" y="-630" width="120" height="60" as="geometry" />
        </mxCell>
        <mxCell id="m5_LvV5t_TjfRuA9_Ew4-10" value="&lt;p style=&quot;margin: 0px ; margin-top: 4px ; text-align: center&quot;&gt;&lt;i&gt;&amp;lt;&amp;lt;Interface&amp;gt;&amp;gt;&lt;/i&gt;&lt;br&gt;&lt;b&gt;BluetoothSocketServerCallback&lt;/b&gt;&lt;br&gt;&lt;/p&gt;&lt;hr size=&quot;1&quot;&gt;&lt;p style=&quot;margin: 0px ; margin-left: 4px&quot;&gt;void onReceive(SocketInfo socketInfo)&lt;br&gt;&lt;/p&gt;" style="verticalAlign=top;align=left;overflow=fill;fontSize=12;fontFamily=Helvetica;html=1;" vertex="1" parent="1">
          <mxGeometry x="1055" y="-760" width="260" height="80" as="geometry" />
        </mxCell>
        <mxCell id="m5_LvV5t_TjfRuA9_Ew4-11" value="Use" style="endArrow=open;endSize=12;dashed=1;html=1;" edge="1" parent="1" source="m5_LvV5t_TjfRuA9_Ew4-1" target="m5_LvV5t_TjfRuA9_Ew4-10">
          <mxGeometry width="160" relative="1" as="geometry">
            <mxPoint x="1100" y="-650" as="sourcePoint" />
            <mxPoint x="1260" y="-650" as="targetPoint" />
          </mxGeometry>
        </mxCell>
      </root>
    </mxGraphModel>
  </diagram>
</mxfile>
